# This file uses centimeters as units for non-parametric coordinates.

mtllib List.mtl
g default
v 7.390748 0.000000 -15.097030
v 7.290748 0.000000 -15.097030
v 7.390748 0.400000 -15.097030
v 7.390748 0.400000 14.902970
v 7.390748 0.000000 14.902970
v 7.290748 0.000000 14.902970
v 7.310746 0.400000 -15.097030
v 7.290748 0.380002 -15.097030
v 7.290748 0.380002 14.902970
v 7.310746 0.400000 14.902970
v 7.310489 0.000000 -15.097030
v 7.310144 0.000000 14.902970
vt 0.678812 0.002054
vt 0.404786 0.002046
vt 0.404786 0.001394
vt 0.665112 0.001394
vt 0.404786 0.004693
vt 0.678812 0.004692
vt 0.007447 0.004692
vt 0.062253 0.004692
vt 0.075953 0.004692
vt 0.062253 0.994112
vt 0.007447 0.994112
vt 0.075953 0.994112
vt 0.404786 0.996771
vt 0.678812 0.996751
vt 0.665112 0.997410
vt 0.404786 0.997410
vt 0.678812 0.994112
vt 0.404786 0.994112
vt 0.349803 0.004692
vt 0.336279 0.004692
vt 0.404786 0.004692
vt 0.349566 0.994112
vt 0.336279 0.994112
vt 0.075953 0.994112
vn -0.000001 0.000000 -1.000000
vn -0.000002 0.000000 -1.000000
vn -0.000012 0.000000 -1.000000
vn -0.000012 0.000000 -1.000000
vn 0.000000 1.000000 0.000000
vn 0.000000 1.000000 0.000000
vn -0.196097 0.980585 -0.000000
vn -0.196097 0.980585 -0.000000
vn -0.000012 0.000000 1.000000
vn -0.000007 0.000000 1.000000
vn -0.000062 0.000000 1.000000
vn -0.000062 0.000000 1.000000
vn 0.000000 -1.000000 -0.000000
vn -0.000000 -1.000000 0.000000
vn -0.000000 -1.000000 0.000000
vn 0.000000 -1.000000 -0.000000
vn -0.998753 0.049933 -0.000000
vn -1.000000 0.000000 -0.000000
vn -1.000000 0.000000 -0.000000
vn -0.998753 0.049933 -0.000000
vn 1.000000 0.000000 0.000000
vn 1.000000 0.000000 0.000000
vn 1.000000 0.000000 0.000000
vn 1.000000 0.000000 0.000000
vn 0.000000 0.000000 -1.000000
vn 0.000000 0.000000 -1.000000
vn -0.000000 -1.000000 0.000000
vn -0.000000 -1.000000 0.000000
vn -0.000000 0.000000 1.000000
vn -0.000000 0.000000 1.000000
s 1
g polySurface9 polySurface7
usemtl lambert3SG
f 7/1/1 11/2/2 2/3/3 8/4/4
s 2
f 4/11/5 3/7/6 7/8/7 10/10/8
s 3
f 12/13/9 10/14/10 9/15/11 6/16/12
s 4
f 2/20/13 11/19/14 12/22/15 6/23/16
s 2
f 8/9/17 2/20/18 6/23/19 9/24/20
s off
f 1/5/21 3/6/22 4/17/23 5/18/24
s 2
f 7/8/7 8/9/17 9/12/20 10/10/8
s 1
f 1/5/25 11/2/2 7/1/1 3/6/26
s 4
f 11/19/14 1/21/27 5/18/28 12/22/15
s 3
f 4/17/29 10/14/10 12/13/9 5/18/30
g default
v 7.281351 13.685574 -15.097030
v 7.248753 13.718968 -15.097030
v 7.390748 14.117375 -15.097030
v 7.290129 14.226938 -15.097030
v 7.390748 14.117375 14.902970
v 7.290129 14.226938 14.902970
v 7.281351 13.685574 14.902970
v 7.248753 13.718968 14.902970
v 7.334789 13.737737 14.902970
v 7.336033 13.738951 -15.097029
v 7.285541 13.789028 -15.097030
v 7.285541 13.789028 14.902970
v 7.376629 13.778579 14.902970
v 7.376629 13.778579 -15.097030
v 7.253992 13.841819 -15.097030
v 7.253992 13.841819 14.902970
v 7.376256 13.819987 14.902970
v 7.376256 13.819987 -15.097030
v 7.276397 13.868641 -15.097030
v 7.276397 13.868641 14.902970
v 7.377827 13.856317 14.902970
v 7.377827 13.856317 -15.097030
v 7.252651 13.906251 -15.097030
v 7.252651 13.906251 14.902970
v 7.379399 13.892647 14.902970
v 7.379399 13.892647 -15.097030
v 7.249785 13.938250 -15.097030
v 7.249785 13.938250 14.902970
v 7.380970 13.928976 14.902970
v 7.380970 13.928976 -15.097030
v 7.254890 13.984767 -15.097030
v 7.254890 13.984767 14.902970
v 7.384113 14.001636 14.902970
v 7.384113 14.001636 -15.097030
v 7.288692 14.095056 -15.097030
v 7.288692 14.095056 14.902970
v 7.385684 14.037965 14.902970
v 7.385684 14.037965 -15.097030
v 7.291860 14.142572 -15.097030
v 7.291860 14.142572 14.902970
v 7.384730 14.070361 14.902970
v 7.384730 14.070361 -15.097030
v 7.256815 14.194419 -15.097030
v 7.256815 14.194419 14.902970
v 7.274135 13.743744 -15.097030
v 7.305651 13.709294 -15.097030
v 7.305651 13.709294 14.902969
v 7.274135 13.743744 14.902970
vt 0.749013 0.669033
vt 0.788932 0.667940
vt 0.788932 0.678373
vt 0.755610 0.677358
vt 0.879767 0.005012
vt 0.905369 0.005012
vt 0.752157 0.723363
vt 0.785479 0.722347
vt 0.785479 0.732780
vt 0.745560 0.731687
vt 0.808754 0.005012
vt 0.816790 0.005012
vt 0.913387 0.005012
vt 0.874698 0.005012
vt 0.822637 0.005012
vt 0.703489 0.592219
vt 0.713947 0.592219
vt 0.713947 0.600168
vt 0.703489 0.599829
vt 0.993672 0.005012
vt 0.987566 0.005012
vt 0.700035 0.800890
vt 0.710493 0.800552
vt 0.710493 0.808501
vt 0.700035 0.808501
vt 0.829949 0.005012
vt 0.839718 0.005012
vt 0.703489 0.609344
vt 0.719423 0.609086
vt 0.732829 0.612290
vt 0.703489 0.622058
vt 0.980712 0.005012
vt 0.970412 0.005012
vt 0.700035 0.778663
vt 0.729375 0.788429
vt 0.715970 0.791635
vt 0.700035 0.791767
vt 0.844864 0.005012
vt 0.733622 0.620082
vt 0.710187 0.628480
vt 0.964424 0.005012
vt 0.706734 0.772240
vt 0.730169 0.780638
vt 0.849152 0.005012
vt 0.743371 0.622162
vt 0.715767 0.634419
vt 0.956933 0.005012
vt 0.712314 0.766301
vt 0.739917 0.778558
vt 0.853439 0.005012
vt 0.748951 0.626711
vt 0.721348 0.640358
vt 0.952646 0.005012
vt 0.717894 0.760362
vt 0.745498 0.774009
vt 0.857728 0.005012
vt 0.755612 0.634812
vt 0.726928 0.646298
vt 0.947528 0.005012
vt 0.723474 0.754423
vt 0.752159 0.765908
vt 0.866303 0.005012
vt 0.768008 0.657497
vt 0.738088 0.658176
vt 0.930097 0.005012
vt 0.734635 0.742544
vt 0.764554 0.743223
vt 0.870590 0.005012
vt 0.775132 0.665444
vt 0.743668 0.664115
vt 0.923991 0.005012
vt 0.740215 0.736605
vt 0.771678 0.735276
vt 0.913393 0.993189
vt 0.905377 0.993189
vt 0.879773 0.993189
vt 0.874705 0.993189
vt 0.870597 0.993189
vt 0.866310 0.993189
vt 0.857734 0.993189
vt 0.853446 0.993189
vt 0.849159 0.993189
vt 0.844871 0.993189
vt 0.839723 0.993189
vt 0.829656 0.993189
vt 0.822644 0.993189
vt 0.816796 0.993189
vt 0.808760 0.993189
vt 0.993679 0.993189
vt 0.987572 0.993189
vt 0.980718 0.993189
vt 0.970419 0.993189
vt 0.964431 0.993189
vt 0.956941 0.993189
vt 0.952653 0.993189
vt 0.947535 0.993189
vt 0.930104 0.993189
vt 0.923997 0.993189
vn 0.000001 -0.000001 -1.000000
vn -0.000005 0.000006 -1.000000
vn -0.000006 0.000006 -1.000000
vn -0.000006 0.000006 -1.000000
vn 0.736527 0.676408 0.000000
vn 0.736527 0.676408 0.000000
vn 0.736527 0.676408 0.000000
vn 0.736527 0.676408 0.000000
vn 0.000006 -0.000006 1.000000
vn 0.000006 -0.000006 1.000000
vn 0.000005 -0.000006 1.000000
vn -0.000001 0.000001 1.000000
vn -0.715592 -0.698519 0.000000
vn -0.715592 -0.698519 0.000000
vn -0.715592 -0.698519 0.000000
vn -0.715592 -0.698519 0.000000
vn -0.698519 0.715592 -0.000000
vn -0.999789 -0.020521 -0.000000
vn -0.999789 -0.020521 -0.000000
vn -0.698519 0.715592 -0.000000
vn 0.997973 -0.063640 0.000000
vn 0.991905 -0.126979 0.000000
vn 0.991905 -0.126979 0.000000
vn 0.997973 -0.063640 0.000000
vn 0.698519 -0.715592 0.000000
vn 0.698519 -0.715592 0.000000
vn 0.698519 -0.715592 0.000000
vn 0.698519 -0.715592 0.000000
vn 0.000000 -0.000000 -1.000000
vn 0.000000 -0.000000 -1.000000
vn 0.000007 0.000007 -1.000000
vn 0.000006 0.000006 -1.000000
vn -0.885363 0.464901 -0.000000
vn -0.698519 0.715592 -0.000000
vn -0.698519 0.715592 -0.000000
vn -0.885363 0.464901 -0.000000
vn -0.000010 0.000011 1.000000
vn -0.000013 0.000011 1.000000
vn 0.000010 0.000010 1.000000
vn 0.000010 0.000010 1.000000
vn 0.698519 -0.715592 0.000000
vn 0.894325 -0.447417 0.000000
vn 0.894325 -0.447419 0.000000
vn 0.698519 -0.715592 0.000000
vn -0.000000 -0.000000 -1.000000
vn -0.000003 -0.000003 -1.000000
vn 0.000002 -0.000005 -1.000000
vn -0.000001 -0.000005 -1.000000
vn -0.993470 -0.114097 -0.000000
vn -0.979555 -0.201179 -0.000000
vn -0.979555 -0.201179 -0.000000
vn -0.993470 -0.114097 -0.000000
vn -0.000002 0.000002 1.000000
vn -0.000003 0.000003 1.000000
vn -0.000004 0.000002 1.000000
vn -0.000009 0.000004 1.000000
vn 0.999881 -0.015411 0.000000
vn 0.999881 -0.015411 0.000000
vn 0.000002 -0.000002 -1.000000
vn 0.000003 -0.000003 -1.000000
vn -0.999783 -0.020811 -0.000000
vn -0.999783 -0.020811 -0.000000
vn -0.000003 0.000003 1.000000
vn -0.000002 0.000002 1.000000
vn 0.999066 -0.043213 0.000000
vn 0.999066 -0.043213 0.000000
vn -0.000008 0.000008 -1.000000
vn -0.000004 0.000004 -1.000000
vn -0.934065 -0.357103 -0.000000
vn -0.934065 -0.357103 -0.000000
vn -0.000000 0.000000 1.000000
vn -0.000000 0.000000 1.000000
vn 0.999066 -0.043212 0.000000
vn 0.999066 -0.043212 0.000000
vn -0.000001 0.000001 -1.000000
vn -0.000003 0.000003 -1.000000
vn -0.999594 0.028507 -0.000000
vn -0.999594 0.028507 -0.000000
vn -0.000005 0.000005 1.000000
vn -0.000008 0.000008 1.000000
vn 0.999066 -0.043213 0.000000
vn 0.999066 -0.043213 0.000000
vn 0.000006 -0.000006 -1.000000
vn 0.000006 -0.000006 -1.000000
vn -0.970570 0.240817 -0.000000
vn -0.970570 0.240817 -0.000000
vn -0.000007 0.000007 1.000000
vn -0.000006 0.000006 1.000000
vn 0.999066 -0.043213 0.000000
vn 0.999066 -0.043213 0.000000
vn 0.000002 -0.000002 -1.000000
vn 0.000006 -0.000006 -1.000000
vn -0.973637 0.228101 -0.000000
vn -0.973637 0.228101 -0.000000
vn -0.000003 0.000003 1.000000
vn -0.000002 0.000002 1.000000
vn 0.999960 -0.008975 0.000000
vn 0.999960 -0.008975 0.000000
vn 0.000004 -0.000004 -1.000000
vn -0.000003 0.000003 -1.000000
vn -0.952198 -0.305482 -0.000000
vn -0.952198 -0.305482 -0.000000
vn -0.000001 0.000001 1.000000
vn -0.000006 0.000006 1.000000
s 1
g polySurface7 polySurface10
usemtl lambert3SG
f 54/25/31 55/26/32 16/27/33 15/28/34
s off
f 15/29/35 16/30/36 18/99/37 17/100/38
s 2
f 17/31/39 18/32/40 56/33/41 53/34/42
s off
f 14/35/43 13/36/44 19/111/45 20/112/46
s 3
f 16/30/47 55/37/48 56/98/49 18/99/50
s 4
f 54/38/51 15/29/52 17/100/53 53/101/54
f 13/36/55 58/39/56 59/110/57 19/111/58
s 1
f 13/40/59 14/41/60 57/42/61 58/43/62
s 3
f 57/45/63 14/44/64 20/113/65 60/114/66
s 2
f 59/46/67 60/47/68 20/48/69 19/49/70
s 4
f 22/50/71 26/51/72 25/108/73 21/109/74
s 1
f 22/52/75 23/53/76 27/54/77 26/55/78
s 3
f 27/57/79 23/56/80 24/115/81 28/116/82
s 2
f 25/58/83 28/59/84 24/60/85 21/61/86
s 4
f 26/51/72 30/62/87 29/107/88 25/108/73
s 1
f 26/55/78 27/54/77 31/63/89 30/64/90
s 3
f 31/65/91 27/57/79 28/116/82 32/117/92
s 2
f 29/66/93 32/67/94 28/59/84 25/58/83
s 4
f 30/62/87 34/68/95 33/106/96 29/107/88
s 1
f 30/64/90 31/63/89 35/69/97 34/70/98
s 3
f 35/71/99 31/65/91 32/117/92 36/118/100
s 2
f 33/72/101 36/73/102 32/67/94 29/66/93
s 4
f 34/68/95 38/74/103 37/105/104 33/106/96
s 1
f 34/70/98 35/69/97 39/75/105 38/76/106
s 3
f 39/77/107 35/71/99 36/118/100 40/119/108
s 2
f 37/78/109 40/79/110 36/73/102 33/72/101
s 4
f 38/74/103 42/80/111 41/104/112 37/105/104
s 1
f 38/76/106 39/75/105 43/81/113 42/82/114
s 3
f 43/83/115 39/77/107 40/119/108 44/120/116
s 2
f 41/84/117 44/85/118 40/79/110 37/78/109
s 4
f 42/80/111 46/86/119 45/103/120 41/104/112
s 1
f 47/87/121 46/88/122 42/82/114 43/81/113
s 3
f 47/89/123 43/83/115 44/120/116 48/121/124
s 2
f 41/84/117 45/90/125 48/91/126 44/85/118
s 4
f 46/86/119 50/92/127 49/102/128 45/103/120
s 1
f 46/88/122 47/87/121 51/93/129 50/94/130
s 3
f 51/95/131 47/89/123 48/121/124 52/122/132
s 2
f 49/96/133 52/97/134 48/91/126 45/90/125
s 4
f 50/92/127 54/38/51 53/101/54 49/102/128
s 1
f 50/94/130 51/93/129 55/26/32 54/25/31
s 3
f 56/98/49 55/37/48 51/95/131 52/122/132
s 2
f 53/34/42 56/33/41 52/97/134 49/96/133
s 1
f 58/43/62 57/42/61 23/53/76 22/52/75
s 4
f 58/39/56 22/50/71 21/109/74 59/110/57
s 2
f 21/61/86 24/60/85 60/47/68 59/46/67
s 3
f 23/56/80 57/45/63 60/114/66 24/115/81
